<svg viewBox="30 128 440 145" xmlns="http://www.w3.org/2000/svg">
  
  
  <g>
    <g>
      <circle fill="#F7F7F7" cx="453.51" cy="240.88" r="10.95"/>
      <path fill="#F7F7F7" d="M35.54,266.85s22.52-57.71,31.71-81.68c8.74-22.78,11.35-43.16,39-49.24,15.07-3.31,57.28-3.37,73.22-1.71,16.74,1.75,32.55,16.87,34.02,33.79,3.01,34.66-22.97,79.39-60.28,82.7-26.43,2.34-36.53-16.01-46.51-36.8,8.81-.05,38.76,1.93,49.38-4.08,13.15-7.45,19.78-24.85,22.19-38.91-10.86.17-21.71-.09-32.25,0-16.27.13-29.28-1.17-36.96,15.22-8.61,18.38-18.8,63.21-33.48,74.44-3.13,2.4-7.62,6.26-16.94,6.26h-23.1Z"/>
      <path fill="#F7F7F7" d="M223.58,251.83h-11.15c-3.65,0-6.16-3.67-4.83-7.08l27.55-70.53c.78-1.99,2.7-3.3,4.83-3.3h15.29c2.14,0,4.06,1.31,4.83,3.3l27.51,70.53c1.33,3.4-1.18,7.07-4.83,7.07h-11.15c-2.18,0-4.13-1.37-4.88-3.42l-2.75-7.57c-.75-2.05-2.69-3.42-4.88-3.42h-23.04c-2.18,0-4.13,1.37-4.88,3.42l-2.75,7.57c-.75,2.05-2.69,3.42-4.88,3.42ZM241.03,218.82h13.2c.87,0,1.47-.86,1.18-1.68l-6.62-18.16c-.4-1.1-1.96-1.1-2.35,0l-6.58,18.16c-.3.82.31,1.68,1.18,1.68Z"/>
      <path fill="#F7F7F7" d="M350.33,191.69c-1.71,1.71-4.37,1.97-6.38.64-1.13-.74-2.37-1.38-3.71-1.91-2.7-1.07-5.6-1.61-8.71-1.61s-5.73.51-8.17,1.53c-2.44,1.02-4.53,2.5-6.28,4.43-1.75,1.94-3.1,4.25-4.05,6.95-.95,2.7-1.43,5.74-1.43,9.13s.5,6.6,1.5,9.44c1,2.84,2.44,5.26,4.3,7.29,1.87,2.02,4.09,3.59,6.66,4.69,2.57,1.11,5.44,1.66,8.58,1.66,2.35,0,4.49-.31,6.43-.93,1.94-.62,3.65-1.54,5.13-2.75,1.48-1.21,2.75-2.7,3.79-4.49l1.75-3.01c.79-1.37-.19-3.08-1.77-3.08h-10.96c-2.9,0-5.25-2.35-5.25-5.25v-5.06c0-2.9,2.35-5.25,5.25-5.25h26.53c2.75,0,5.04,2.12,5.24,4.87l.2,2.7c.01.17.02.34.02.52-.02,5.81-.92,11.13-2.67,15.96-1.78,4.89-4.31,9.1-7.6,12.63-3.29,3.53-7.2,6.25-11.75,8.17-4.55,1.92-9.6,2.88-15.17,2.88s-11.21-1.03-16.21-3.09c-5-2.06-9.37-4.93-13.12-8.61-3.75-3.68-6.67-7.99-8.76-12.94-2.09-4.94-3.14-10.28-3.14-16.03s1.02-10.94,3.06-15.82c2.04-4.88,4.89-9.14,8.56-12.81,3.66-3.66,7.94-6.52,12.84-8.56,4.89-2.04,10.19-3.06,15.9-3.06,5.36,0,10.58.93,15.66,2.8,3,1.1,5.83,2.49,8.47,4.15,2.85,1.79,3.27,5.79.89,8.18l-5.65,5.65Z"/>
      <path fill="#F7F7F7" d="M378.17,246.6v-70.48c0-2.88,2.34-5.22,5.22-5.22h43.51c2.88,0,5.22,2.34,5.22,5.22v8.17c0,2.88-2.34,5.22-5.22,5.22h-23.2c-2.3,0-4.16,1.86-4.16,4.16v4.19c0,2.3,1.86,4.16,4.16,4.16h21.04c2.88,0,5.22,2.34,5.22,5.22v8.17c0,2.88-2.34,5.22-5.22,5.22h-21.04c-2.3,0-4.16,1.86-4.16,4.16v4.24c0,2.3,1.86,4.16,4.16,4.16h23.19c2.88,0,5.23,2.34,5.23,5.22v8.17c0,2.88-2.34,5.22-5.23,5.22h-43.5c-2.88,0-5.22-2.34-5.22-5.22Z"/>
    </g>
  </g>
</svg>
